<svg xmlns="http://www.w3.org/2000/svg" width="297" height="42" viewBox="0 0 297 42"><g transform="translate(-811.5 -5482)"><line x2="248.5" transform="translate(839.5 5502.5)" fill="none" stroke="#f5f5f5" stroke-width="1"/><g transform="translate(1108.5 5524) rotate(180)" fill="#f5f5f5"><path d="M 25.12378120422363 21.5 L 0.8762181997299194 21.5 L 13 0.9828307628631592 L 25.12378120422363 21.5 Z" stroke="none"/><path d="M 13 1.965688705444336 L 1.752452850341797 21 L 24.2475471496582 21 L 13 1.965688705444336 M 13 0 L 26 22 L 0 22 L 13 0 Z" stroke="none" fill="#f5f5f5"/></g><g transform="translate(1082.5 5482)" fill="#0d0f13"><path d="M 25.07866096496582 19.5 L 0.9213384985923767 19.5 L 13 0.9174438714981079 L 25.07866096496582 19.5 Z" stroke="none"/><path d="M 13 1.834897994995117 L 1.842683792114258 19 L 24.15731620788574 19 L 13 1.834897994995117 M 13 0 L 26 20 L 0 20 L 13 0 Z" stroke="none" fill="#f5f5f5"/></g><g transform="translate(811.5 5488)" fill="#f5f5f5" stroke="#f5f5f5" stroke-width="1"><circle cx="14" cy="14" r="14" stroke="none"/><circle cx="14" cy="14" r="13.5" fill="none"/></g></g></svg>