<svg xmlns="http://www.w3.org/2000/svg" width="30.631" height="30.676" viewBox="0 0 30.631 30.676"><defs><style>.a{fill:#fff;}</style></defs><g transform="translate(0 0)"><path class="a" d="M24.566,44.634a3.017,3.017,0,0,0-2.188-1,3.12,3.12,0,0,0-2.214,1l-2.046,2.039c-.168-.091-.337-.175-.5-.259-.233-.117-.453-.227-.641-.343a22.236,22.236,0,0,1-5.328-4.856A13.118,13.118,0,0,1,9.9,38.451c.531-.486,1.023-.991,1.5-1.476.181-.181.363-.369.544-.55a2.97,2.97,0,0,0,0-4.48L10.18,30.177c-.2-.2-.408-.408-.6-.615-.388-.4-.8-.816-1.217-1.2a3.065,3.065,0,0,0-2.169-.952,3.171,3.171,0,0,0-2.2.952l-.013.013-2.2,2.221A4.737,4.737,0,0,0,.371,33.6a11.35,11.35,0,0,0,.829,4.8,27.877,27.877,0,0,0,4.953,8.261A30.468,30.468,0,0,0,16.3,54.611,15.807,15.807,0,0,0,22,56.295c.136.006.278.013.408.013A4.879,4.879,0,0,0,26.139,54.7c.006-.013.019-.019.026-.032A14.72,14.72,0,0,1,27.3,53.5c.278-.265.563-.544.842-.835a3.23,3.23,0,0,0,.978-2.24,3.112,3.112,0,0,0-1-2.221Zm2.318,6.818c-.006,0-.006.006,0,0-.253.272-.511.518-.79.79a17.026,17.026,0,0,0-1.25,1.295,3.121,3.121,0,0,1-2.434,1.029c-.1,0-.2,0-.3-.006a14.042,14.042,0,0,1-5.05-1.515A28.76,28.76,0,0,1,7.506,45.56,26.285,26.285,0,0,1,2.844,37.8a9.244,9.244,0,0,1-.725-4.053,2.972,2.972,0,0,1,.893-1.923L5.22,29.614a1.472,1.472,0,0,1,.984-.46,1.385,1.385,0,0,1,.945.453l.019.019c.395.369.77.751,1.165,1.159.2.207.408.414.615.628l1.768,1.768a1.236,1.236,0,0,1,0,2.007c-.188.188-.369.376-.557.557-.544.557-1.062,1.075-1.625,1.58-.013.013-.026.019-.032.032a1.321,1.321,0,0,0-.337,1.47l.019.058A14.19,14.19,0,0,0,10.277,42.3l.006.006a23.763,23.763,0,0,0,5.749,5.231,8.837,8.837,0,0,0,.8.434c.233.117.453.227.641.343.026.013.052.032.078.045a1.4,1.4,0,0,0,.641.162,1.384,1.384,0,0,0,.984-.447l2.214-2.214a1.465,1.465,0,0,1,.978-.486,1.319,1.319,0,0,1,.932.473l.013.013,3.567,3.567A1.28,1.28,0,0,1,26.884,51.452Z" transform="translate(-0.344 -25.632)"/><path class="a" d="M245.663,87.659a8.332,8.332,0,0,1,6.785,6.785.869.869,0,0,0,.861.725,1.158,1.158,0,0,0,.149-.013.875.875,0,0,0,.719-1.01,10.075,10.075,0,0,0-8.21-8.21.879.879,0,0,0-1.01.712A.865.865,0,0,0,245.663,87.659Z" transform="translate(-229.107 -80.362)"/><path class="a" d="M263.309,13.532A16.59,16.59,0,0,0,249.791.014a.873.873,0,1,0-.285,1.722,14.819,14.819,0,0,1,12.081,12.081.869.869,0,0,0,.861.725,1.156,1.156,0,0,0,.149-.013A.858.858,0,0,0,263.309,13.532Z" transform="translate(-232.691 0)"/></g></svg>