<svg xmlns="http://www.w3.org/2000/svg" width="41.353" height="44.457" viewBox="0 0 41.353 44.457"><defs><style>.a{fill:#1e1e1e;}.b{fill:none;stroke:#707070;}</style></defs><g transform="translate(-1601.5 -350.5)"><g transform="translate(59.28 -95.634)"><path class="a" d="M1.824,20.888H18v1.879H1.824Z" transform="translate(1571.53 449.576) rotate(45)"/><path class="a" d="M1.824,20.888H18v1.879H1.824Z" transform="translate(1585.552 480.444) rotate(135)"/></g><g transform="translate(1584.934 351)"><g transform="translate(17.066)"><g transform="translate(0)"><path class="b" d="M55.867,6.208H45V4.656A4.656,4.656,0,0,0,40.347,0H34.138a4.656,4.656,0,0,0-4.656,4.656V6.208H18.618a1.552,1.552,0,1,0,0,3.1h1.687l2.969,32.734a1.552,1.552,0,0,0,1.552,1.411H49.659a1.552,1.552,0,0,0,1.552-1.411L54.18,9.312h1.687a1.552,1.552,0,1,0,0-3.1ZM32.586,4.656A1.552,1.552,0,0,1,34.138,3.1h6.208A1.552,1.552,0,0,1,41.9,4.656V6.208H32.586V4.656ZM23.429,9.312h0Z" transform="translate(-17.066)"/></g></g></g></g></svg>