<svg xmlns="http://www.w3.org/2000/svg" width="30.676" height="30.676" viewBox="0 0 30.676 30.676"><defs><style>.a{fill:#fff;}</style></defs><path class="a" d="M22.371,0H8.3A8.313,8.313,0,0,0,0,8.3V22.373a8.313,8.313,0,0,0,8.3,8.3H22.372a8.313,8.313,0,0,0,8.3-8.3V8.3a8.313,8.313,0,0,0-8.3-8.3Zm6.505,22.373a6.513,6.513,0,0,1-6.505,6.505H8.3A6.513,6.513,0,0,1,1.8,22.373V8.3A6.513,6.513,0,0,1,8.3,1.8H22.372A6.513,6.513,0,0,1,28.877,8.3Zm0,0" transform="translate(0.001 0)"/><path class="a" d="M124.392,116a8.388,8.388,0,1,0,8.388,8.388A8.4,8.4,0,0,0,124.392,116Zm0,14.977a6.589,6.589,0,1,1,6.589-6.589A6.6,6.6,0,0,1,124.392,130.981Zm0,0" transform="translate(-109.054 -109.054)"/><path class="a" d="M360.455,66.285a2.479,2.479,0,1,0,2.479,2.478A2.481,2.481,0,0,0,360.455,66.285Zm0,3.159a.68.68,0,1,1,.68-.68A.681.681,0,0,1,360.455,69.444Zm0,0" transform="translate(-336.529 -62.314)"/></svg>