<svg xmlns="http://www.w3.org/2000/svg" width="34.953" height="22.622" viewBox="0 0 34.953 22.622"><defs><style>.a{fill:#fff;}</style></defs><g transform="translate(0 17.961)"><path class="a" d="M34.371,264.533H.583a.582.582,0,0,0-.583.583,4.083,4.083,0,0,0,4.078,4.078h26.8a4.083,4.083,0,0,0,4.078-4.078A.582.582,0,0,0,34.371,264.533Zm-3.5,3.5H4.078a2.917,2.917,0,0,1-2.854-2.33H33.729A2.917,2.917,0,0,1,30.875,268.028Z" transform="translate(0 -264.533)"/></g><g transform="translate(2.33 2.913)"><path class="a" d="M49.279,42.667A15.164,15.164,0,0,0,34.133,57.814V58.4a.582.582,0,0,0,.583.583H63.843a.582.582,0,0,0,.583-.583v-.583A15.164,15.164,0,0,0,49.279,42.667ZM35.3,57.813a13.981,13.981,0,1,1,27.963,0Z" transform="translate(-34.133 -42.667)"/></g><g transform="translate(6.773 9.513)"><path class="a" d="M100.331,140.006a13.02,13.02,0,0,0-1.122,1.457l.971.644a11.905,11.905,0,0,1,1.022-1.327Z" transform="translate(-99.209 -140.006)"/></g><g transform="translate(8.706 5.215)"><path class="a" d="M136.3,76.8a12.77,12.77,0,0,0-8.77,3.479l.8.849a11.608,11.608,0,0,1,7.973-3.163Z" transform="translate(-127.531 -76.8)"/></g><g transform="translate(15.729)"><rect class="a" width="3.495" height="1.165"/></g><g transform="translate(16.894 0.583)"><rect class="a" width="1.165" height="2.913"/></g></svg>