<svg xmlns="http://www.w3.org/2000/svg" width="25.192" height="23.152" viewBox="0 0 25.192 23.152"><defs><style>.a{fill:#fff;stroke:#fff;stroke-width:0.5px;}</style></defs><g transform="translate(0.25 0.25)"><g transform="translate(0 0.823)"><g transform="translate(0 0)"><path class="a" d="M24.362,39.3a.411.411,0,0,0-.494.308h0l-1.585,6.87a4.5,4.5,0,0,1-4.409,3.507H5.146L3.741,37.817A2.057,2.057,0,0,0,1.7,36H.411a.411.411,0,1,0,0,.823H1.7a1.234,1.234,0,0,1,1.226,1.091l1.848,16.01a2.049,2.049,0,0,0,1.846,1.8,2.465,2.465,0,0,0,4.863.019h4.188a2.468,2.468,0,1,0,0-.823H11.481A2.465,2.465,0,0,0,6.623,54.9a1.23,1.23,0,0,1-1.034-1.074l-.347-3.022H17.875a5.323,5.323,0,0,0,5.211-4.145l1.585-6.87A.411.411,0,0,0,24.362,39.3ZM18.1,53.686a1.645,1.645,0,1,1-1.645,1.645A1.645,1.645,0,0,1,18.1,53.686Zm-9.05,0A1.645,1.645,0,1,1,7.4,55.332,1.645,1.645,0,0,1,9.05,53.686Z" transform="translate(0 -35.998)"/></g></g><g transform="translate(8.098 0)"><path class="a" d="M167.5,27.805a.412.412,0,0,0-.582,0l-3.951,3.952V20.409a.411.411,0,0,0-.823,0V31.757l-3.951-3.952a.412.412,0,1,0-.582.582l4.654,4.653a.411.411,0,0,0,.582,0h0l4.654-4.653A.412.412,0,0,0,167.5,27.805Z" transform="translate(-157.487 -19.998)"/></g></g></svg>