<svg xmlns="http://www.w3.org/2000/svg" width="25.163" height="25.163" viewBox="0 0 25.163 25.163"><defs><style>.a{fill:#fff;}</style></defs><path class="a" d="M20,14.842a5.158,5.158,0,0,0-4.237,2.218l-5.708-2.854a5.164,5.164,0,0,0,0-3.25L15.766,8.1A5.133,5.133,0,1,0,15.1,6.785L9.4,9.639a5.16,5.16,0,1,0,0,5.885L15.1,18.378A5.161,5.161,0,1,0,20,14.842ZM20,1.474A3.686,3.686,0,1,1,16.317,5.16,3.69,3.69,0,0,1,20,1.474ZM5.16,16.268a3.686,3.686,0,1,1,3.686-3.686A3.69,3.69,0,0,1,5.16,16.268ZM20,23.689A3.686,3.686,0,1,1,23.689,20,3.69,3.69,0,0,1,20,23.689Z" transform="translate(0 0)"/></svg>